<svg width="0" height="0" class="hidden">
  <symbol fill="none" xmlns="http://www.w3.org/2000/svg" viewBox="0 0 24 24" id="comedyclub">
    <path fill-rule="evenodd" clip-rule="evenodd" d="M4 12C4 7.58172 7.58172 4 12 4C16.4183 4 20 7.58172 20 12C20 16.4183 16.4183 20 12 20C7.58172 20 4 16.4183 4 12ZM12 2C6.47715 2 2 6.47715 2 12C2 17.5228 6.47715 22 12 22C17.5228 22 22 17.5228 22 12C22 6.47715 17.5228 2 12 2ZM9 8C10.1046 8 11 8.89543 11 10H7C7 8.89543 7.89543 8 9 8ZM12 16C10.9596 16 10.0429 16.5296 9.50482 17.3339C8.00766 16.47 7 14.8527 7 13H17C17 14.8527 15.9923 16.47 14.4952 17.3339C13.9571 16.5296 13.0404 16 12 16ZM17 10C17 8.89543 16.1046 8 15 8C13.8954 8 13 8.89543 13 10H17Z" fill="black"></path>
  </symbol>
  <symbol fill="none" xmlns="http://www.w3.org/2000/svg" viewBox="0 0 24 24" id="creperie">
    <path fill-rule="evenodd" clip-rule="evenodd" d="M5 9C5 5.13 8.13 2 12 2C15.87 2 19 5.13 19 9C19 14.25 12 22 12 22C12 22 8.50061 18.1257 6.45028 14H12C14.7614 14 17 11.7614 17 9C17 6.23858 14.7614 4 12 4C9.23858 4 7 6.23858 7 9C7 10.1256 7.37194 11.1643 7.99963 12H5.59229C5.22418 10.9591 5 9.93952 5 9ZM12 12C13.6569 12 15 10.6569 15 9C15 7.34315 13.6569 6 12 6C10.3431 6 9 7.34315 9 9C9 10.6569 10.3431 12 12 12Z" fill="black"></path>
  </symbol>
  <symbol fill="none" xmlns="http://www.w3.org/2000/svg" viewBox="0 0 24 24" id="directions-car">
    <path fill-rule="evenodd" clip-rule="evenodd" d="M9 6C10.3062 6 11.4175 5.16519 11.8293 4H14V6H16V4H17V2H11.8293C11.4175 0.834808 10.3062 0 9 0C7.34315 0 6 1.34315 6 3C6 4.65685 7.34315 6 9 6ZM10 3C10 3.55228 9.55228 4 9 4C8.44772 4 8 3.55228 8 3C8 2.44772 8.44772 2 9 2C9.55228 2 10 2.44772 10 3ZM3 15V22C3 22.55 3.45 23 4 23H5C5.55 23 6 22.55 6 22V21H18V22C18 22.55 18.45 23 19 23H20C20.55 23 21 22.55 21 22V15L19.4144 9.45056C19.1691 8.59196 18.3844 8 17.4914 8H15H9H6.5086C5.61564 8 4.83087 8.59196 4.58555 9.45056L3 15ZM5 17.5C5 18.33 5.67 19 6.5 19C7.33 19 8 18.33 8 17.5C8 16.67 7.33 16 6.5 16C5.67 16 5 16.67 5 17.5ZM16 17.5C16 18.33 16.67 19 17.5 19C18.33 19 19 18.33 19 17.5C19 16.67 18.33 16 17.5 16C16.67 16 16 16.67 16 17.5ZM5.65146 13H18.3485L17.4914 10H6.5086L5.65146 13Z" fill="black"></path>
  </symbol>
  <symbol fill="none" xmlns="http://www.w3.org/2000/svg" viewBox="0 0 24 24" id="linkedin">
    <path d="M20.447 20.452H16.893V14.883C16.893 13.555 16.866 11.846 15.041 11.846C13.188 11.846 12.905 13.291 12.905 14.785V20.452H9.351V9H12.765V10.561H12.811C13.288 9.661 14.448 8.711 16.181 8.711C19.782 8.711 20.448 11.081 20.448 14.166L20.447 20.452ZM5.337 7.433C4.193 7.433 3.274 6.507 3.274 5.368C3.274 4.23 4.194 3.305 5.337 3.305C6.477 3.305 7.401 4.23 7.401 5.368C7.401 6.507 6.476 7.433 5.337 7.433ZM7.119 20.452H3.555V9H7.119V20.452ZM22.225 0H1.771C0.792 0 0 0.774 0 1.729V22.271C0 23.227 0.792 24 1.771 24H22.222C23.2 24 24 23.227 24 22.271V1.729C24 0.774 23.2 0 22.222 0H22.225Z" fill="#F92525"></path>
  </symbol>
  <symbol fill="none" xmlns="http://www.w3.org/2000/svg" viewBox="0 0 24 24" id="telegram">
    <path d="M11.944 3.26667e-05C8.77112 0.0148396 5.73324 1.28566 3.4949 3.53449C1.25656 5.78332 -3.4549e-05 8.82711 7.12435e-10 12C7.12441e-10 15.1826 1.26428 18.2349 3.51472 20.4853C5.76516 22.7357 8.8174 24 12 24C15.1826 24 18.2348 22.7357 20.4853 20.4853C22.7357 18.2349 24 15.1826 24 12C24 8.81743 22.7357 5.76519 20.4853 3.51475C18.2348 1.26431 15.1826 3.26667e-05 12 3.26667e-05C11.9813 -1.08889e-05 11.9627 -1.08889e-05 11.944 3.26667e-05ZM16.906 7.22403C17.006 7.22203 17.227 7.24703 17.371 7.36403C17.4667 7.44713 17.5277 7.56311 17.542 7.68903C17.558 7.78203 17.578 7.99503 17.562 8.16103C17.382 10.059 16.6 14.663 16.202 16.788C16.034 17.688 15.703 17.989 15.382 18.018C14.686 18.083 14.157 17.558 13.482 17.116C12.426 16.423 11.829 15.992 10.804 15.316C9.619 14.536 10.387 14.106 11.062 13.406C11.239 13.222 14.309 10.429 14.369 10.176C14.376 10.144 14.383 10.026 14.313 9.96403C14.243 9.90203 14.139 9.92303 14.064 9.94003C13.958 9.96403 12.271 11.08 9.003 13.285C8.523 13.615 8.09 13.775 7.701 13.765C7.273 13.757 6.449 13.524 5.836 13.325C5.084 13.08 4.487 12.951 4.539 12.536C4.566 12.32 4.864 12.099 5.432 11.873C8.93 10.349 11.262 9.34403 12.43 8.85903C15.762 7.47303 16.455 7.23203 16.906 7.22403Z" fill="#F92525"></path>
  </symbol>
  <symbol fill="none" xmlns="http://www.w3.org/2000/svg" viewBox="0 0 24 22" id="x">
    <path d="M18.901 0H22.581L14.541 9.19L24 21.693H16.594L10.794 14.109L4.156 21.693H0.474L9.074 11.863L0 0.00100005H7.594L12.837 6.933L18.901 0ZM17.61 19.491H19.649L6.486 2.087H4.298L17.61 19.491Z" fill="#F92525"></path>
  </symbol>
</svg>