<svg width="0" height="0" class="hidden">
  <symbol fill="none" xmlns="http://www.w3.org/2000/svg" viewBox="0 0 24 24" id="comedyclub">
    <path fill-rule="evenodd" clip-rule="evenodd" d="M4 12C4 7.58172 7.58172 4 12 4C16.4183 4 20 7.58172 20 12C20 16.4183 16.4183 20 12 20C7.58172 20 4 16.4183 4 12ZM12 2C6.47715 2 2 6.47715 2 12C2 17.5228 6.47715 22 12 22C17.5228 22 22 17.5228 22 12C22 6.47715 17.5228 2 12 2ZM9 8C10.1046 8 11 8.89543 11 10H7C7 8.89543 7.89543 8 9 8ZM12 16C10.9596 16 10.0429 16.5296 9.50482 17.3339C8.00766 16.47 7 14.8527 7 13H17C17 14.8527 15.9923 16.47 14.4952 17.3339C13.9571 16.5296 13.0404 16 12 16ZM17 10C17 8.89543 16.1046 8 15 8C13.8954 8 13 8.89543 13 10H17Z" fill="black"></path>
  </symbol>
  <symbol fill="none" xmlns="http://www.w3.org/2000/svg" viewBox="0 0 24 24" id="creperie">
    <path fill-rule="evenodd" clip-rule="evenodd" d="M5 9C5 5.13 8.13 2 12 2C15.87 2 19 5.13 19 9C19 14.25 12 22 12 22C12 22 8.50061 18.1257 6.45028 14H12C14.7614 14 17 11.7614 17 9C17 6.23858 14.7614 4 12 4C9.23858 4 7 6.23858 7 9C7 10.1256 7.37194 11.1643 7.99963 12H5.59229C5.22418 10.9591 5 9.93952 5 9ZM12 12C13.6569 12 15 10.6569 15 9C15 7.34315 13.6569 6 12 6C10.3431 6 9 7.34315 9 9C9 10.6569 10.3431 12 12 12Z" fill="black"></path>
  </symbol>
  <symbol fill="none" xmlns="http://www.w3.org/2000/svg" viewBox="0 0 24 24" id="directions-car">
    <path fill-rule="evenodd" clip-rule="evenodd" d="M9 6C10.3062 6 11.4175 5.16519 11.8293 4H14V6H16V4H17V2H11.8293C11.4175 0.834808 10.3062 0 9 0C7.34315 0 6 1.34315 6 3C6 4.65685 7.34315 6 9 6ZM10 3C10 3.55228 9.55228 4 9 4C8.44772 4 8 3.55228 8 3C8 2.44772 8.44772 2 9 2C9.55228 2 10 2.44772 10 3ZM3 15V22C3 22.55 3.45 23 4 23H5C5.55 23 6 22.55 6 22V21H18V22C18 22.55 18.45 23 19 23H20C20.55 23 21 22.55 21 22V15L19.4144 9.45056C19.1691 8.59196 18.3844 8 17.4914 8H15H9H6.5086C5.61564 8 4.83087 8.59196 4.58555 9.45056L3 15ZM5 17.5C5 18.33 5.67 19 6.5 19C7.33 19 8 18.33 8 17.5C8 16.67 7.33 16 6.5 16C5.67 16 5 16.67 5 17.5ZM16 17.5C16 18.33 16.67 19 17.5 19C18.33 19 19 18.33 19 17.5C19 16.67 18.33 16 17.5 16C16.67 16 16 16.67 16 17.5ZM5.65146 13H18.3485L17.4914 10H6.5086L5.65146 13Z" fill="black"></path>
  </symbol>
</svg>